<?xml version="1.0" standalone="no"?>
<!DOCTYPE svg PUBLIC "-//W3C//DTD SVG 20010904//EN"
 "http://www.w3.org/TR/2001/REC-SVG-20010904/DTD/svg10.dtd">
<svg version="1.0" xmlns="http://www.w3.org/2000/svg"
 width="2500.000000pt" height="2500.000000pt" viewBox="0 0 2500.000000 2500.000000"
 preserveAspectRatio="xMidYMid meet">
<metadata>
Created by potrace 1.11, written by Peter Selinger 2001-2013
</metadata>
<g transform="translate(0.000000,2500.000000) scale(0.100000,-0.100000)"
fill="#000000" stroke="none">
<path d="M12018 24965 c-1 -2 -72 -6 -156 -10 -85 -4 -170 -8 -190 -10 -20 -1
-80 -6 -132 -10 -52 -3 -106 -8 -120 -10 -14 -2 -61 -7 -105 -10 -44 -3 -93
-7 -110 -9 -16 -3 -61 -7 -100 -11 -38 -4 -77 -9 -85 -10 -8 -2 -44 -6 -80
-10 -36 -4 -72 -8 -80 -10 -9 -2 -43 -6 -75 -10 -33 -4 -69 -9 -80 -11 -10 -2
-37 -6 -60 -9 -46 -7 -387 -63 -425 -70 -14 -3 -41 -8 -60 -11 -19 -4 -44 -9
-55 -11 -11 -2 -31 -6 -45 -9 -14 -2 -78 -16 -144 -30 -65 -14 -130 -28 -145
-30 -14 -3 -42 -9 -61 -14 -19 -5 -46 -11 -60 -14 -218 -47 -573 -144 -915
-251 -397 -125 -931 -323 -1210 -450 -16 -7 -77 -34 -135 -60 -135 -60 -201
-90 -273 -127 -54 -27 -58 -28 -52 -9 5 16 -13 9 -92 -36 -54 -30 -123 -69
-153 -86 -30 -16 -68 -38 -85 -47 -16 -10 -50 -29 -75 -42 -694 -385 -1122
-658 -1670 -1067 -102 -76 -296 -227 -310 -241 -3 -3 -39 -32 -80 -65 -68 -54
-258 -212 -270 -225 -3 -3 -36 -32 -75 -65 -38 -33 -79 -69 -91 -80 -12 -11
-68 -63 -125 -115 -253 -231 -555 -534 -788 -790 -43 -47 -98 -108 -122 -135
-81 -93 -211 -244 -263 -305 -36 -42 -249 -311 -301 -380 -27 -36 -53 -69 -58
-75 -113 -138 -561 -794 -661 -969 -16 -28 -33 -52 -37 -54 -5 -2 -9 -7 -9
-12 0 -4 -25 -48 -54 -98 -228 -380 -496 -895 -667 -1284 -22 -51 -49 -111
-59 -133 -10 -22 -35 -80 -55 -130 -20 -49 -52 -126 -70 -170 -170 -407 -363
-998 -510 -1560 -5 -16 -9 -34 -11 -40 -2 -5 -5 -21 -8 -35 -3 -14 -19 -79
-35 -145 -16 -66 -34 -145 -41 -175 -6 -30 -18 -82 -25 -115 -8 -33 -16 -78
-20 -100 -3 -22 -7 -47 -10 -55 -2 -8 -6 -26 -9 -40 -2 -14 -11 -63 -20 -110
-8 -47 -18 -101 -21 -120 -3 -19 -12 -71 -20 -115 -8 -44 -17 -100 -20 -125
-3 -25 -8 -56 -10 -70 -2 -14 -7 -45 -10 -70 -4 -25 -8 -56 -10 -70 -13 -90
-20 -148 -29 -230 -3 -25 -8 -63 -10 -85 -7 -49 -12 -106 -21 -205 -44 -502
-50 -654 -50 -1195 1 -253 4 -515 8 -582 12 -201 17 -285 22 -348 3 -33 7 -94
10 -135 3 -41 7 -88 10 -105 2 -16 7 -61 10 -100 3 -38 10 -104 15 -145 5 -41
12 -97 15 -125 10 -83 65 -459 70 -475 2 -8 6 -33 10 -55 6 -41 32 -194 39
-230 2 -11 9 -49 16 -85 47 -247 164 -738 236 -985 19 -66 37 -127 39 -136 8
-36 89 -293 147 -464 237 -706 555 -1421 924 -2083 63 -113 266 -456 324 -547
8 -13 37 -59 64 -102 161 -254 434 -639 655 -923 451 -580 920 -1085 1501
-1614 25 -23 81 -73 125 -111 44 -39 82 -72 85 -75 13 -15 318 -265 420 -346
664 -523 1343 -957 2100 -1341 182 -92 367 -181 485 -233 28 -12 77 -35 110
-50 339 -157 987 -396 1446 -534 139 -41 404 -115 439 -122 14 -3 48 -12 76
-20 28 -8 60 -16 70 -18 11 -2 37 -9 59 -14 22 -6 51 -13 65 -15 14 -3 44 -10
66 -16 23 -6 62 -15 85 -20 24 -5 98 -20 164 -34 66 -15 131 -28 145 -31 14
-2 72 -14 130 -25 58 -11 121 -23 140 -26 19 -3 46 -7 60 -10 14 -3 39 -7 55
-9 17 -3 62 -10 100 -16 39 -6 81 -13 95 -15 14 -2 63 -8 110 -15 47 -6 100
-13 118 -16 17 -2 47 -6 65 -8 17 -3 59 -8 92 -11 33 -4 71 -8 85 -11 14 -2
59 -6 100 -9 41 -3 86 -8 100 -10 14 -2 57 -7 95 -10 39 -2 104 -7 145 -11 83
-6 133 -9 330 -21 177 -10 1066 -10 1245 0 197 11 350 22 455 32 25 2 77 7
115 10 39 3 86 8 105 10 19 2 60 7 90 10 65 7 135 15 170 20 14 2 50 7 80 10
30 3 62 8 70 10 8 2 40 7 70 10 30 3 107 15 170 25 63 11 133 22 155 25 37 6
183 32 230 41 11 2 34 7 50 10 17 3 73 14 126 25 52 11 104 21 115 23 48 10
465 107 514 121 30 8 63 17 73 20 9 3 25 7 35 9 9 2 37 10 62 17 25 7 50 13
55 15 18 4 218 62 290 84 39 12 84 26 102 31 29 9 388 129 423 142 407 149
712 271 960 385 36 16 88 40 115 52 278 123 844 423 1146 606 49 30 94 54 99
54 4 0 10 3 12 8 2 4 46 33 98 65 52 32 155 97 228 145 111 73 184 122 386
262 122 84 625 465 646 489 3 4 39 33 80 66 41 32 77 62 80 65 3 3 37 33 75
65 39 32 72 61 75 64 3 3 23 21 45 40 318 271 859 806 1128 1115 199 229 302
351 419 498 668 839 1187 1685 1631 2658 60 132 241 565 253 605 2 6 26 71 55
145 89 234 273 783 294 880 2 8 23 87 48 175 81 286 182 720 233 1000 9 50 18
99 20 110 5 23 33 196 40 240 3 17 9 55 14 85 5 30 12 78 15 105 3 28 12 95
20 150 15 108 21 156 30 250 3 33 8 71 10 85 3 14 7 61 10 105 3 44 7 98 10
120 5 42 15 164 20 255 27 458 27 1280 0 1605 -2 28 -7 93 -10 146 -3 53 -7
105 -9 115 -2 10 -7 64 -10 119 -4 55 -9 107 -11 115 -2 8 -6 44 -10 80 -3 36
-7 76 -9 90 -3 14 -7 52 -11 85 -3 33 -11 92 -16 130 -6 39 -12 88 -15 110 -3
22 -12 78 -19 125 -8 47 -17 103 -20 125 -8 56 -64 363 -79 435 -3 14 -11 50
-17 80 -14 70 -54 249 -81 360 -11 47 -21 92 -23 100 -3 16 -64 246 -91 345
-9 33 -23 80 -31 105 -8 25 -16 50 -17 55 -36 153 -283 875 -371 1080 -7 17
-22 55 -34 85 -12 30 -26 64 -31 75 -5 11 -36 83 -69 160 -90 212 -141 325
-274 595 -133 272 -394 752 -458 842 -11 14 -19 28 -19 31 0 5 -101 172 -165
272 -85 133 -238 362 -310 463 -44 63 -87 124 -95 135 -23 34 -274 371 -280
377 -3 3 -30 37 -60 75 -53 68 -279 345 -290 355 -3 3 -48 55 -100 115 -52 61
-115 133 -140 160 -26 28 -75 81 -111 120 -232 252 -607 622 -820 810 -117
103 -188 165 -214 187 -16 14 -54 46 -83 72 -89 77 -388 316 -557 442 -261
196 -491 356 -786 547 -102 66 -453 278 -519 314 -25 13 -58 32 -75 42 -16 10
-61 35 -100 56 -38 21 -92 50 -120 65 -221 122 -686 346 -975 470 -236 101
-775 310 -840 325 -8 2 -35 11 -60 20 -246 90 -877 272 -1127 325 -23 5 -68
16 -100 24 -32 8 -74 18 -93 21 -19 3 -60 12 -90 20 -30 7 -68 16 -85 18 -16
3 -41 8 -55 11 -14 3 -36 8 -50 10 -14 3 -72 14 -130 24 -58 11 -123 23 -145
26 -22 4 -76 13 -120 21 -44 8 -102 17 -130 21 -27 3 -59 8 -70 10 -11 2 -40
7 -65 10 -25 3 -56 7 -70 9 -14 3 -47 7 -75 10 -27 3 -61 8 -75 10 -33 5 -163
20 -265 30 -33 3 -76 8 -95 10 -19 3 -75 7 -125 11 -49 3 -106 7 -125 9 -19 2
-84 7 -145 10 -60 3 -137 9 -170 12 -66 6 -1111 13 -1117 8z m907 -420 c116
-4 228 -8 250 -10 22 -2 90 -6 150 -10 61 -3 128 -8 150 -10 22 -2 72 -6 110
-10 39 -3 86 -7 105 -10 19 -2 65 -7 102 -10 37 -3 75 -7 85 -9 10 -2 50 -7
88 -10 39 -4 77 -9 85 -11 8 -2 40 -6 70 -10 30 -3 66 -7 80 -10 14 -2 61 -9
105 -15 44 -6 91 -13 105 -16 14 -2 41 -7 60 -9 19 -3 46 -8 60 -11 13 -3 38
-7 55 -10 16 -2 39 -6 50 -8 11 -2 61 -11 110 -20 50 -9 164 -32 255 -52 91
-19 174 -36 185 -38 39 -8 421 -105 535 -136 664 -181 1377 -448 2010 -752
191 -91 516 -257 545 -278 6 -4 46 -27 90 -50 593 -319 1398 -875 1940 -1339
55 -47 111 -95 124 -106 22 -19 51 -44 116 -103 17 -15 73 -65 125 -112 121
-108 640 -627 745 -744 44 -49 87 -96 96 -105 41 -41 328 -382 437 -518 317
-398 615 -822 856 -1218 54 -88 109 -177 122 -197 13 -21 24 -40 24 -42 0 -2
19 -37 43 -78 24 -40 61 -104 82 -143 21 -38 60 -110 87 -160 52 -95 328 -648
328 -658 0 -3 15 -38 34 -79 166 -358 355 -850 498 -1298 38 -121 95 -309 102
-340 2 -8 11 -40 20 -71 9 -31 19 -65 21 -75 2 -11 20 -80 40 -154 19 -74 38
-148 41 -164 2 -16 7 -32 9 -36 2 -4 7 -22 10 -41 3 -19 11 -52 16 -74 6 -22
12 -47 14 -55 2 -8 15 -71 29 -140 31 -145 25 -113 69 -360 44 -249 58 -332
77 -480 6 -47 13 -96 15 -110 2 -14 7 -50 10 -80 3 -30 8 -66 10 -80 2 -14 6
-56 10 -95 3 -38 8 -86 10 -105 57 -532 74 -1322 40 -1854 -12 -189 -22 -326
-30 -406 -3 -25 -7 -70 -10 -100 -3 -30 -7 -75 -10 -100 -3 -25 -7 -70 -10
-100 -3 -30 -8 -66 -10 -80 -2 -14 -6 -47 -9 -75 -4 -27 -9 -68 -12 -90 -3
-22 -7 -51 -9 -65 -3 -25 -13 -92 -20 -140 -2 -14 -7 -40 -10 -57 -3 -18 -7
-48 -10 -65 -3 -18 -8 -46 -11 -63 -2 -16 -6 -41 -9 -55 -3 -14 -7 -38 -10
-55 -5 -28 -8 -46 -20 -105 -2 -14 -7 -41 -10 -60 -20 -117 -94 -448 -156
-695 -151 -600 -422 -1377 -669 -1920 -17 -38 -48 -106 -68 -150 -112 -245
-397 -793 -485 -932 -14 -22 -39 -48 -54 -55 -229 -118 -657 -328 -668 -328
-2 0 -36 -15 -77 -34 -40 -19 -134 -60 -208 -91 -74 -31 -148 -63 -165 -70
-182 -80 -670 -254 -990 -353 -257 -80 -776 -220 -880 -238 -16 -2 -38 -7 -47
-10 -9 -3 -25 -6 -35 -8 -10 -2 -72 -15 -138 -29 -66 -14 -131 -28 -145 -30
-244 -46 -362 -67 -395 -71 -22 -3 -51 -8 -65 -10 -28 -5 -222 -34 -285 -42
-22 -2 -51 -7 -65 -9 -14 -2 -50 -7 -80 -10 -30 -3 -71 -8 -90 -10 -75 -9
-137 -15 -195 -20 -85 -7 -163 -14 -215 -19 -25 -3 -90 -8 -145 -11 -55 -3
-125 -8 -155 -10 -105 -8 -476 -18 -670 -18 -197 0 -647 12 -678 18 -9 1 -76
6 -149 10 -72 3 -144 8 -160 10 -15 2 -66 6 -113 10 -47 3 -96 8 -110 11 -14
2 -54 6 -90 9 -36 3 -81 7 -100 10 -84 11 -234 29 -319 40 -134 16 -632 102
-726 125 -22 5 -114 25 -205 45 -91 19 -262 59 -380 90 -118 31 -224 58 -235
60 -27 7 -395 117 -425 127 -8 3 -94 31 -190 63 -239 77 -700 250 -855 319
-16 8 -64 28 -105 46 -222 96 -401 180 -685 324 -153 77 -282 142 -285 144 -4
1 -37 -48 -75 -110 -37 -62 -87 -138 -111 -168 -187 -241 -436 -401 -735 -472
-137 -32 -403 -31 -539 1 -116 28 -279 90 -343 131 -26 16 -50 30 -53 30 -8 0
-67 43 -129 95 -255 213 -410 484 -462 810 -14 91 -9 333 10 425 48 230 115
373 283 597 54 73 70 112 45 113 -3 0 -22 15 -42 33 -20 17 -66 59 -104 92
-385 342 -785 743 -1100 1105 -294 338 -485 579 -776 981 -44 61 -203 293
-224 327 -5 9 -42 66 -81 126 -224 348 -435 719 -620 1086 -104 209 -198 406
-222 465 -8 22 -18 45 -22 50 -5 6 -27 55 -50 110 -23 55 -50 118 -60 140 -9
22 -30 72 -44 110 -15 39 -33 84 -41 100 -55 126 -218 587 -300 850 -100 322
-246 878 -281 1075 -3 14 -12 59 -20 100 -9 41 -17 82 -19 90 -5 27 -17 95
-21 120 -3 14 -13 72 -24 130 -20 111 -40 234 -44 272 -4 32 -18 130 -21 148
-1 8 -6 40 -10 70 -3 30 -8 66 -10 80 -2 14 -6 54 -10 90 -3 36 -8 76 -10 90
-3 14 -7 54 -10 90 -3 36 -8 85 -10 110 -3 25 -7 72 -9 105 -21 266 -20 243
-31 520 -4 94 -8 223 -9 288 -2 64 -5 119 -7 121 -2 2 -56 6 -119 9 -63 4
-136 13 -162 21 -307 92 -369 484 -105 665 75 51 122 61 284 63 68 1 123 4
124 7 0 3 2 13 3 21 2 8 7 62 11 120 4 58 8 121 10 140 2 19 7 73 10 120 3 47
8 96 10 110 2 14 7 54 10 90 4 36 9 79 11 95 2 17 6 55 9 85 4 30 8 66 10 80
2 14 6 45 10 70 3 25 8 56 10 70 2 14 7 45 10 70 24 182 117 682 165 885 12
50 23 97 25 105 60 285 242 899 375 1270 23 63 45 126 50 140 27 83 210 533
280 686 18 38 38 83 45 99 79 181 286 595 394 790 19 33 54 97 79 143 25 45
49 82 54 82 5 0 27 12 51 27 49 31 563 292 682 345 183 83 220 100 389 172 97
42 183 76 191 76 8 0 16 4 19 9 3 5 18 12 33 16 15 3 45 15 68 25 149 67 717
259 1050 355 252 73 757 196 935 228 14 3 84 16 155 30 129 25 153 30 230 42
22 3 63 10 90 15 28 5 75 12 105 16 30 4 57 8 60 9 3 1 34 5 70 10 36 5 67 9
70 10 3 1 37 5 75 9 39 5 77 9 85 11 17 3 98 12 185 21 33 3 71 7 85 9 42 6
195 18 385 30 55 4 120 8 145 11 25 2 160 6 300 10 140 4 256 7 257 8 4 3 353
-2 538 -9z m-6989 -1962 c-24 -48 -86 -178 -153 -323 -162 -346 -360 -847
-488 -1235 -62 -188 -134 -414 -140 -444 -2 -9 -25 -90 -50 -181 -44 -155
-100 -374 -111 -430 -3 -14 -10 -43 -16 -65 -5 -22 -12 -47 -13 -55 -22 -99
-75 -352 -79 -375 -25 -134 -59 -325 -62 -349 -2 -17 -11 -68 -18 -115 -15
-86 -19 -112 -31 -206 -4 -27 -9 -61 -11 -75 -2 -14 -6 -50 -9 -80 -3 -30 -8
-66 -10 -80 -7 -37 -19 -152 -31 -300 -4 -41 -10 -80 -15 -86 -5 -6 -28 -16
-51 -23 -99 -30 -216 -99 -309 -183 -41 -36 -127 -154 -158 -217 -36 -70 -68
-173 -76 -243 -8 -63 -8 -183 0 -218 3 -14 8 -41 11 -60 29 -171 165 -372 328
-482 62 -43 176 -98 201 -98 8 0 15 -6 16 -12 0 -7 2 -21 4 -30 2 -10 6 -88
10 -175 3 -87 8 -174 10 -193 2 -19 6 -78 10 -130 3 -52 8 -106 10 -120 2 -14
7 -65 10 -114 4 -49 8 -96 10 -105 1 -9 6 -47 10 -86 4 -38 9 -83 11 -100 3
-16 6 -48 8 -70 3 -22 7 -53 10 -70 3 -16 12 -82 21 -145 8 -63 17 -126 20
-140 26 -165 40 -246 61 -360 9 -47 18 -96 21 -110 10 -59 75 -359 84 -395 6
-22 13 -51 16 -65 3 -14 6 -29 7 -35 2 -5 6 -23 10 -40 86 -346 125 -485 227
-811 91 -294 243 -718 331 -924 6 -14 14 -34 19 -45 49 -117 138 -325 165
-383 19 -41 34 -75 34 -78 0 -4 192 -403 209 -434 4 -8 38 -73 76 -145 86
-163 226 -414 319 -570 39 -66 73 -125 76 -131 17 -37 379 -589 450 -685 17
-24 73 -101 123 -170 51 -70 101 -139 112 -154 137 -188 525 -660 700 -851 6
-6 44 -48 85 -94 102 -113 590 -603 723 -726 l108 -100 -55 -115 c-72 -150
-134 -342 -151 -461 -27 -197 -27 -422 1 -573 57 -315 186 -587 393 -830 268
-315 676 -530 1086 -572 135 -14 339 -9 465 13 280 47 587 187 790 360 64 54
216 208 236 238 9 14 20 26 25 26 4 0 55 -23 111 -51 86 -42 225 -107 473
-219 224 -101 738 -302 945 -370 30 -10 66 -23 80 -28 42 -18 366 -119 571
-178 357 -102 865 -221 1194 -279 17 -2 41 -7 55 -10 14 -3 39 -7 55 -10 17
-3 44 -7 60 -10 17 -3 75 -12 130 -20 55 -9 111 -17 125 -20 64 -10 227 -32
305 -40 28 -3 61 -8 75 -10 46 -7 125 -15 181 -20 30 -2 75 -6 100 -9 119 -14
298 -27 589 -43 188 -10 989 -10 1195 0 198 9 292 15 370 22 33 3 92 8 130 10
39 3 90 7 115 10 25 2 70 7 100 10 74 7 150 16 180 20 14 2 50 6 80 10 50 5
94 11 160 20 14 2 45 6 70 10 25 3 56 8 70 10 14 2 45 7 70 10 25 4 81 12 125
20 44 8 96 16 115 20 19 3 58 10 85 15 28 5 65 12 82 15 145 24 628 130 757
166 22 6 46 12 55 14 9 2 36 9 61 16 25 7 52 14 62 15 94 18 863 257 943 293
11 5 47 19 80 30 160 52 597 230 953 387 l34 15 -58 -83 c-32 -46 -70 -101
-85 -123 -29 -43 -182 -253 -196 -270 -5 -5 -43 -56 -85 -111 -71 -94 -337
-424 -362 -450 -6 -6 -31 -35 -56 -64 -46 -55 -111 -131 -120 -140 -3 -3 -46
-50 -95 -105 -238 -265 -582 -608 -850 -850 -201 -182 -445 -389 -600 -510
-21 -16 -50 -39 -64 -51 -14 -11 -87 -67 -161 -122 -74 -56 -139 -106 -145
-110 -72 -57 -468 -328 -655 -447 -49 -32 -122 -78 -142 -90 -9 -5 -65 -39
-125 -75 -120 -73 -124 -75 -247 -145 -224 -127 -708 -380 -764 -399 -9 -3
-24 -10 -32 -15 -8 -5 -31 -16 -50 -24 -19 -9 -75 -34 -125 -57 -49 -23 -117
-53 -150 -67 -33 -14 -80 -34 -105 -45 -82 -37 -104 -46 -235 -98 -386 -154
-817 -301 -1170 -400 -44 -13 -98 -28 -120 -35 -48 -15 -399 -105 -435 -112
-14 -2 -41 -8 -60 -13 -36 -9 -315 -68 -360 -76 -14 -2 -45 -9 -70 -14 -25 -5
-74 -15 -110 -21 -36 -6 -74 -13 -85 -15 -24 -4 -210 -34 -245 -40 -86 -13
-249 -36 -270 -39 -14 -1 -50 -6 -80 -9 -30 -4 -68 -8 -85 -10 -16 -2 -64 -7
-105 -11 -41 -4 -82 -8 -90 -10 -8 -2 -53 -6 -100 -10 -47 -3 -101 -8 -120
-10 -34 -3 -176 -13 -295 -20 -177 -10 -457 -18 -670 -18 -233 -1 -659 10
-720 18 -27 4 -140 12 -280 20 -55 3 -173 14 -221 20 -17 2 -62 7 -100 10 -38
3 -80 8 -94 10 -14 2 -52 7 -85 11 -33 3 -67 7 -75 9 -8 1 -40 6 -70 10 -66 8
-64 8 -270 40 -91 14 -176 27 -190 30 -14 3 -52 10 -85 16 -33 6 -91 17 -130
24 -38 8 -81 16 -95 19 -136 26 -364 78 -600 138 -162 41 -568 156 -582 164
-4 3 -17 7 -28 9 -48 9 -496 165 -710 247 -241 93 -533 216 -698 294 -51 24
-95 44 -98 44 -7 0 -468 231 -534 267 -30 17 -95 52 -145 78 -49 27 -102 56
-117 67 -14 10 -29 18 -32 18 -5 0 -254 146 -387 228 -379 232 -834 554 -1199
846 -117 94 -354 292 -410 343 -14 12 -35 30 -46 40 -255 216 -872 834 -1050
1053 -16 19 -36 42 -45 50 -9 8 -40 44 -70 80 -30 36 -56 67 -59 70 -51 48
-386 474 -547 697 -261 358 -588 865 -723 1118 -14 28 -38 69 -53 92 -15 24
-27 44 -27 46 0 2 -34 66 -76 143 -262 484 -532 1095 -729 1650 -81 227 -187
558 -230 714 -9 36 -21 76 -26 90 -14 40 -160 637 -174 711 -3 13 -7 35 -10
49 -6 28 -6 30 -40 205 -13 72 -26 144 -29 160 -3 17 -15 86 -26 155 -12 69
-23 136 -25 150 -13 84 -53 401 -60 471 -6 67 -12 118 -19 189 -10 88 -16 172
-31 390 -25 375 -26 1209 0 1495 2 22 6 85 10 140 3 55 7 114 9 130 2 17 6 66
10 110 4 44 9 99 11 123 11 93 16 138 20 167 2 17 7 50 10 75 2 25 7 68 10 95
3 28 10 79 16 115 5 36 12 76 14 90 23 159 91 548 100 572 2 7 6 29 9 48 4 28
72 334 92 413 2 9 6 26 9 38 12 56 71 280 106 404 22 77 41 145 43 150 1 6 9
30 16 55 8 25 14 47 15 50 0 3 11 39 25 80 13 41 24 80 26 85 1 6 34 102 73
215 39 113 73 212 76 220 20 75 257 654 344 843 17 37 45 97 62 135 88 192
293 592 396 772 11 19 31 55 45 80 60 106 130 225 149 251 10 15 19 30 19 33
0 17 358 561 504 767 159 224 524 692 621 795 5 6 21 24 34 40 301 359 811
877 1181 1200 25 21 47 41 50 44 3 3 34 30 70 60 36 30 67 57 70 60 10 12 288
237 350 285 36 27 67 52 70 55 42 46 796 577 823 579 4 1 -3 -20 -17 -46z"/>
<path d="M13025 23758 c-244 -28 -461 -162 -600 -373 -77 -118 -114 -216 -140
-375 -8 -48 -8 -185 -1 -240 33 -223 146 -426 315 -565 67 -54 212 -135 243
-135 9 0 19 -4 22 -9 5 -8 34 -14 126 -29 51 -7 187 -7 245 1 113 15 270 83
365 158 214 167 328 400 335 679 7 250 -68 451 -236 634 -120 132 -316 232
-489 251 -91 10 -116 11 -185 3z m210 -437 c203 -71 326 -310 275 -534 -46
-207 -234 -360 -423 -343 -77 6 -116 18 -172 50 -170 100 -255 315 -203 517
63 249 299 389 523 310z"/>
<path d="M8015 20895 c-103 -15 -274 -69 -367 -116 -220 -110 -424 -302 -544
-514 -44 -76 -103 -213 -110 -253 -3 -14 -7 -29 -10 -34 -19 -31 -45 -217 -46
-333 -3 -214 32 -377 120 -565 175 -374 519 -638 931 -715 84 -15 303 -22 376
-10 372 56 666 233 879 528 55 77 152 261 161 306 2 11 8 28 13 38 8 16 25 78
37 143 45 225 31 454 -40 666 -141 423 -503 750 -934 843 -103 22 -86 21 -246
25 -75 2 -168 -2 -220 -9z m403 -430 c133 -31 282 -116 388 -222 213 -213 295
-489 238 -797 -10 -55 -40 -139 -71 -201 -215 -430 -721 -602 -1146 -389 -195
97 -358 285 -428 492 -40 117 -58 331 -35 422 3 14 8 36 10 50 19 104 91 251
173 352 146 183 356 295 586 314 40 4 73 7 74 8 6 5 153 -16 211 -29z"/>
<path d="M14445 17860 c-97 -15 -121 -21 -207 -50 -293 -98 -534 -308 -671
-585 -86 -173 -121 -323 -121 -515 0 -179 22 -303 82 -456 100 -253 339 -503
589 -615 37 -17 77 -35 88 -40 11 -5 65 -21 120 -35 123 -32 342 -41 470 -20
457 77 829 419 940 865 31 126 36 165 35 291 0 107 -1 121 -15 200 -79 479
-468 871 -946 953 -91 16 -285 20 -364 7z m365 -435 c267 -83 466 -295 525
-558 55 -246 -14 -498 -187 -682 -142 -152 -333 -235 -541 -235 -87 -1 -107 2
-202 26 -235 61 -450 276 -515 515 -23 82 -25 104 -24 224 1 97 6 135 26 202
72 233 259 426 485 497 43 14 87 27 98 30 44 11 281 -2 335 -19z"/>
<path d="M9115 15784 c-279 -71 -463 -321 -450 -613 5 -101 8 -123 37 -199 85
-227 297 -382 527 -385 122 -1 181 12 282 63 159 81 280 253 314 445 6 38 7
163 1 190 -2 11 -9 42 -15 69 -34 146 -160 307 -298 379 -121 63 -275 83 -398
51z m236 -447 c145 -138 9 -395 -167 -317 -119 52 -138 236 -34 324 17 14 44
29 58 32 15 3 31 7 37 8 22 6 77 -19 106 -47z"/>
<path d="M20149 15116 c-2 -2 -33 -6 -69 -10 -96 -9 -147 -16 -225 -33 -38 -8
-79 -16 -90 -18 -38 -5 -203 -55 -306 -92 -57 -20 -174 -72 -259 -114 -354
-177 -635 -410 -904 -749 -110 -140 -261 -407 -336 -595 -71 -179 -137 -414
-156 -560 -3 -27 -8 -58 -10 -69 -19 -102 -26 -489 -11 -611 10 -82 28 -206
33 -230 3 -11 9 -40 14 -65 108 -510 398 -1011 791 -1366 65 -59 77 -69 159
-135 142 -113 330 -225 528 -313 100 -45 362 -140 362 -131 0 3 10 1 23 -4 33
-13 208 -49 294 -61 211 -29 467 -31 686 -4 123 15 422 84 492 113 11 5 65 26
120 47 846 321 1475 1121 1609 2044 21 146 29 512 13 630 -4 30 -10 75 -13
100 -2 25 -7 54 -9 66 -3 12 -7 39 -11 60 -7 50 -39 180 -66 269 -12 39 -22
72 -23 75 -1 3 -7 18 -13 33 -7 16 -12 32 -12 36 0 15 -94 226 -138 311 -48
91 -157 270 -182 298 -8 10 -42 53 -75 97 -84 112 -281 312 -405 412 -346 279
-765 470 -1180 537 -52 8 -111 18 -130 21 -37 7 -495 17 -501 11z m361 -420
c47 -3 103 -8 125 -11 45 -7 225 -43 240 -49 6 -1 24 -6 40 -10 17 -4 62 -18
100 -31 602 -200 1090 -659 1328 -1250 56 -140 107 -315 122 -425 4 -24 8 -47
10 -50 2 -3 6 -37 10 -75 4 -39 9 -83 11 -100 5 -41 5 -268 -1 -330 -6 -70
-15 -144 -20 -180 -5 -31 -17 -96 -20 -105 -1 -3 -7 -32 -14 -65 -56 -262
-233 -621 -420 -855 -128 -159 -321 -334 -501 -455 -99 -66 -329 -182 -448
-225 -77 -28 -247 -75 -307 -86 -14 -2 -37 -6 -52 -9 -114 -21 -267 -32 -408
-30 -143 3 -162 5 -320 31 -592 97 -1114 445 -1454 968 -39 61 -71 114 -71
119 0 5 -8 21 -19 35 -27 40 -125 275 -154 372 -23 75 -40 141 -53 205 -12 64
-24 125 -29 160 -11 69 -14 447 -5 510 4 33 11 83 15 110 13 108 54 265 108
415 143 402 430 777 785 1029 100 71 269 167 376 214 87 38 267 101 317 111
13 3 67 14 119 25 108 23 153 29 265 37 44 4 81 7 82 8 3 2 162 -2 243 -8z"/>
<path d="M12998 13535 c-2 -1 -31 -6 -65 -9 -76 -8 -238 -48 -313 -78 -415
-163 -726 -505 -844 -926 -24 -84 -28 -102 -43 -202 -14 -88 -7 -332 11 -429
91 -482 400 -865 849 -1053 40 -16 79 -31 87 -33 8 -2 50 -13 92 -24 71 -18
117 -27 193 -37 40 -5 275 -6 300 0 11 2 40 7 65 11 65 11 71 12 120 24 197
51 394 150 540 271 252 209 422 492 486 805 2 11 6 31 9 44 22 114 23 367 1
476 -50 244 -131 430 -265 608 -207 275 -529 477 -851 533 -14 2 -41 7 -60 10
-36 7 -306 15 -312 9z m312 -435 c359 -76 648 -351 744 -710 30 -110 41 -272
25 -371 -5 -30 -11 -69 -14 -88 -7 -46 -51 -174 -77 -224 -23 -46 -103 -173
-121 -193 -166 -178 -312 -273 -498 -323 -107 -29 -152 -34 -267 -34 -457 4
-845 326 -942 783 -25 119 -21 313 9 432 81 327 309 580 622 693 152 55 359
69 519 35z"/>
</g>
</svg>
